<svg xmlns="http://www.w3.org/2000/svg" xml:space="preserve" width="48" height="48" style="shape-rendering:geometricPrecision;text-rendering:geometricPrecision;image-rendering:optimizeQuality;fill-rule:evenodd;clip-rule:evenodd" viewBox="0 0 48.98 48.98"><defs><style>.fil0{fill:gray}.fil3{fill:#adadad}.fil2{fill:#c7c7c7}.fil4{fill:#d9d9d9}.fil1{fill:#fff}</style></defs><g id="Слой_x0020_1"><g id="_2174474786336"><path d="m42.12 36.53-.04.04-.04.17-.04.03-.04.17-.04.03-.08.21-.05.04.01.05-.05.03-.03.09-.05.03-.04.08-.04.05-.04.03-.04.09-.04.04c0 .06.02.05-.04.05l-.21.24-.04.04c.01.06.02.05-.04.04l-.04.04-.04.05-.24.2c0 .06.02.05-.04.05l-.14.06-.03.05-.08.04-.04.04h-.05l-.03.04h-.05l-.04.04h-.04l-.04.04h-.04l-.04.04-.04.01-.03.04-.17.04-.04.04h-.09l-.04.04h-.11l-.06.04h-.11c0 .06.01.04-.06.04h-.19l-.05.04h-.31l-.1.06-.08-.02h-2.31l-.09-.04h-.16l-.03-.04v-.23c-.08-.05-.08-1.2-.06-1.36l.01-1.45V24.99c-.03-.3-.03-2.46.04-2.64l.01-7.12 2.6-.01c.14 0 .22-.01.33.05l.36-.01h.06l.03.05.28.04.03.04.18.04.02.04h.06l.04.04h.04l.04.04h.04l.03.05.06-.01.03.04.16.09.04.04.09.04.03.04.14.08.03.04.2.16.04.05.05.03c.06 0 .05-.02.04.04.06 0 .05-.01.04.05l.05.04.15.21.05.03.08.12.04.04.04.1.04.03.04.09.05.03.11.22.04.03v.05l.05.03.08.35.04.07v.13l.04.05v.33l.06.1-.02.07v.56l.04.12.01.26v13.47c.04.34.01 3.5-.05 3.63v.08zM4.95 0H43.89c1.02.05 1.98.22 2.93.78.56.33 1.18.98 1.48 1.57.56 1.13.47 1.36.66 2.4.01.04.02.38.02.98V44.14c-.05 1-.23 1.95-.73 2.73-.4.62-.89 1.15-1.57 1.48-.64.32-1.63.61-2.37.63H4.93c-1.03-.05-2.02-.23-2.8-.74C1.11 47.57.5 46.72.2 45.55c-.05-.21-.09-.43-.12-.65-.04-.22-.06-.55-.08-.95V5.14c.05-1 .23-1.94.8-2.95C1.36 1.22 2.41.54 3.48.25l.94-.19c.11-.02.3 0 .35-.02.14-.03.07-.04.18-.04zm7.31 39.06c-.18.08-.54.06-.76.04h-1.09l-.26-.04h-.53l-.04-.01-.06-.03-.17.01c-.07.01-.06.02-.06-.05l-.22-.04-.03-.05-.18-.04-.03-.04-.25-.08-.03-.04-.19-.08-.03-.04-.17-.08-.03-.05-.13-.07-.04-.05-.17-.11c-.06.01-.04.02-.04-.04l-.04-.05-.03-.04-.04-.04-.05-.04-.03-.04-.04-.05-.05-.04-.12-.17-.04-.03-.04-.04-.04-.09-.05-.03-.03-.1-.04-.03-.13-.25-.04-.03v-.06l-.04-.03c-.21-.52-.21-.35-.21-.97V22.65c0-1.58-.06-3.28.01-4.85l.04-.03.16-.42.04-.02v-.06l.04-.02v-.07l.04-.02.13-.26.04-.03.03-.09.05-.03.03-.1c-.01-.06-.02-.04.05-.04l.12-.16.04-.04.04-.04.04-.04.04-.05.04-.04.04-.04c0-.06-.02-.04.04-.04l.21-.16.04-.05.13-.06.04-.05.09-.04.03-.05.09-.03.04-.04.08-.04.03-.04h.06l.03-.05.05.01.03-.04h.05l.03-.05.18-.04.03-.04.23-.04c0-.07-.02-.06.05-.05h.15c0-.06-.02-.04.04-.04h.04l.22.01.09-.04.5-.01.17-.03h2.3l-.01 14.51.01 2.59c.05.31.02 3.48-.05 3.64v3.14l-.47-.01zm19.51 0c-.18.08-3.27.07-3.68.05h-11.5l-.66-.01c-.13.01-.31.02-.41-.04l-.7.01-.12-.05-.09-.02.01-23.69h1.37c.12-.06.28-.05.42-.05l1.5.01c.12-.06.24-.05.38-.05l1.06-.02.04-.07-.01-1.26.01-.49.04-.32v-1.23l-.01-.12.05-.11v-.29c-.02-.08-.04-.06.04-.06v-.1l.05-.03c.02-.16.05-.16.12-.3l.04-.03.03-.1.05-.04.04-.03.33-.32.04-.05.08-.05.03-.04.1-.03.03-.05.21-.08.03-.04h.06l.03-.04h.11l.06-.04h.27l.12-.05.61.01c.12-.06.11-.05.25-.05l4.51.01.16.04.61-.01.12.05h.27l.07.03.09.01.04.04c.18.04.22.1.38.16l.03.05.09.04.04.04.03.04c.19.12.25.2.38.37l.05.03.11.22.04.03v.05l.05.03.03.21c.06 0 .05-.01.04.05l.01.23.04.09v1.06l.04.4v1.36l.05.16-.01.11.01.3c.07 0 .04-.02.03.08l.01.13.41.02h.1l.14.05h4.07l.01 6.65c.05.4.02 4.33-.05 4.5l-.01 12.65-2.42-.01z" class="fil0"/><path d="M27.63 14.94v.03l-.04.05v.1l-.05.02-.02.05h-.04l-.05.04-.21-.01-.12.05-5.25-.01c-.13.01-.27.02-.37-.04l-.27.01-.03-.05.02-.49c-.07-.1-.06-.27-.06-.41v-2.02l.05-.17v-.25l.04-.05.02-.11h.27c.09-.07.18-.05.3-.04l5.11-.01.16.05.25-.01.06.04c.06.01.01-.01.09.02.12.06 0 0 .06.06l.05.02v.07c.05 0 .04-.02.03.05l-.01.21.06.15-.01 1.99.01.12-.06.19.01.35zm-5.68-5.1-.61-.01-.12.05h-.27c0 .06.01.04-.06.04h-.11l-.03.04h-.06l-.03.04-.21.08-.03.05-.1.03-.03.04-.08.05-.04.05-.33.32-.04.03-.05.04-.03.1-.04.03c-.07.14-.1.14-.12.3l-.05.03v.1l-.04.06V11.71l-.04.12v1.23l.02.32-.07.49.01 1.26c0 .08.03.07-.04.07l-1.06.02c-.12.06-.24.06-.38.05l-1.5-.01c-.12.06-.27.06-.42.05h-1.37L14.61 39l.09.02.12.05.7-.01.41-.01.66.06h11.5c.12-.07 3.32-.09 3.68-.05l2.42.01.01-12.65c-.04-.34 0-4.38.05-4.5l-.01-6.65h-4.21l-.1-.05-.41-.02-.01-.13-.03-.08-.01-.3-.03-.11-.01-.16v-1.1l-.05-.26.01-.4v-.96l-.05-.1.01-.09-.01-.23-.04-.05-.03-.21-.05-.03v-.05l-.04-.03-.11-.22-.05-.03c-.13-.17-.19-.25-.38-.37l-.03-.04-.04-.04-.09-.04-.03-.05c-.16-.06-.2-.12-.38-.16l-.04-.04-.09-.01-.07-.03h-.27l-.12-.05-.61.01-.16-.04-4.51-.01-.25.05zM36.08 22.35l.01 2.64c.05.25 0 3.54-.05 3.68v7.31c.07.19.08 1.21.05 1.45v1.59l.03.04h.16l.09.04h2.31l.08-.03.1-.01h.27l.04-.04h.24l.06-.04h.11c0-.07-.01-.05.06-.04h.11l.04-.04h.09l.04-.04.17-.04.03-.04.04-.01.04-.04h.04l.04-.04h.04l.04-.04h.05l.03-.04h.05l.04-.04.08-.04.03-.05.14-.06.04-.05.24-.2.04-.05.04-.04.04-.04c0-.06-.01-.04.04-.04l.21-.24.04-.05c0-.05-.02-.04.04-.04l.04-.09.04-.03.04-.05.04-.08.05-.03.03-.09.05-.03-.01-.05.05-.04.08-.21.04-.03.04-.17.04-.03.04-.17.04-.04v-.08c-.05-.31-.01-3.49.05-3.63V19.35l-.05-.26v-.68l-.03-.07-.01-.1v-.27l-.04-.06v-.18c-.07 0-.05.01-.04-.07l-.08-.35-.05-.03v-.05l-.04-.03-.11-.22-.05-.03-.04-.09-.04-.03-.04-.1-.04-.04-.08-.12-.05-.03-.15-.21c-.06 0-.05.02-.05-.04l-.04-.05-.04-.04-.05-.03-.04-.05-.2-.16-.03-.04-.14-.08-.03-.04-.09-.04-.04-.04-.16-.09-.03-.04-.06.01-.03-.05h-.04l-.04-.04h-.04l-.04-.04h-.06l-.02-.04-.18-.04-.03-.04-.28-.04-.03-.01-.06-.04-.36.01-.33-.05-2.6.01-.01 7.12zM10.31 15.22l-.5.01-.09.04-.22-.01-.04.04h-.19l-.05.05-.23.04-.03.04-.18.04-.03.05H8.7l-.03.04-.05-.01-.03.05h-.06l-.03.04-.08.04-.04.04-.09.03-.03.05-.09.04-.04.05-.13.06-.04.05-.21.16-.04.04-.04.04-.04.04-.04.05-.04.04-.04.04-.04.04-.12.16-.05.04-.03.1-.05.03-.03.09-.04.03-.13.26-.04.02v.07l-.04.02v.06l-.04.02-.16.42-.04.03c-.07 1.57-.01 3.27-.01 4.85v13.39c0 .62 0 .45.21.97l.04.03v.06l.04.03.13.25.04.03.03.1.05.03.04.09.04.04.04.03.12.17c.06 0 .05-.02.05.04.05 0 .04-.01.04.05l.03.04.05.04.04.04.03.04.04.05.04.04.17.11.04.05.13.07.03.05.17.08.03.04.19.08.03.04.25.08.03.04.18.04.03.05.22.04.06.05.17-.01.06-.01.04.05h.53l.26.04h1.09c.19-.07.54-.06.76-.04l.47.01v-6.78c-.04-.27-.02-2.43.04-2.59l.01-14.51h-2.3l-.17.03z" class="fil1"/><path d="M21.52 11.68h-.27l-.02.11c.01.07.02.05-.04.05v.25l-.05.17v2.02c.06.12.07.27.06.41l-.02.49.03.05.27-.01c.14-.01.25-.01.37.04l5.25.01.12-.05.21.01.05-.04h.04l.02-.05.05-.02V14.97l.04-.03-.01-.35.02-.19.03-.12.01-1.99-.06-.15.01-.21-.03-.05v-.07l-.05-.02c-.06-.06.06 0-.06-.06-.08-.03-.03-.01-.09-.02-.07.01-.06.03-.06-.04l-.25.01-.16-.05-5.11.01-.3.04z" class="fil0"/><path d="M34.2 26.42c.07-.17.1-4.1.05-4.5-.05.12-.09 4.16-.05 4.5zM31.77 39.06c-.36-.04-3.56-.02-3.68.05.41.02 3.5.03 3.68-.05zM42.12 36.45c.06-.13.09-3.29.05-3.63-.06.14-.1 3.32-.05 3.63z" class="fil2"/><path d="M12.73 35.93c.07-.16.1-3.33.05-3.64h-.05v3.64z" class="fil3"/><path d="M36.04 28.67c.05-.14.1-3.43.05-3.68h-.05v3.68z" class="fil4"/><path d="M36.04 24.99h.05l-.01-2.64c-.07.18-.07 2.34-.04 2.64z" class="fil3"/><path d="M12.73 32.29h.05l-.01-2.59c-.06.16-.08 2.32-.04 2.59zM36.03 37.43h.06c.03-.24.02-1.26-.05-1.45l-.01 1.45z" class="fil4"/><path d="M36.09 38.79v-1.36h-.06c-.02.16-.02 1.31.06 1.36z" class="fil3"/><path d="M12.26 39.06c-.22-.02-.57-.03-.76.04.22.02.58.04.76-.04z" class="fil2"/><path d="M15.93 39.1v-.05l-.41.01c.1.06.28.05.41.04z" class="fil3"/><path d="m16.59 39.11-.66-.06v.05z" class="fil4"/><path d="M21.2 14.69c.01-.14 0-.29-.06-.41 0 .14-.01.31.06.41z" class="fil3"/><path d="M16.41 15.26c-.14 0-.3-.01-.42.05.15.01.3.01.42-.05z" class="fil2"/><path d="m19.38 13.87.07-.49h-.06z" class="fil4"/><path d="M18.29 15.22c-.14 0-.26-.01-.38.05.14.01.26.01.38-.05zM21.85 15.26a.758.758 0 0 0-.37-.04c.1.06.24.05.37.04z" class="fil2"/><path d="M29.38 13.06h.05l-.04-.4zM19.39 13.38h.06l-.02-.32z" class="fil3"/><path d="M29.43 13.32v-.26h-.05z" class="fil4"/><path d="M21.82 11.64c-.12-.01-.21-.03-.3.04l.3-.04zM42.17 19.35l-.01-.26h-.04zM39.02 15.27c-.11-.06-.19-.05-.33-.05l.33.05zM22.2 9.79c-.14 0-.13-.01-.25.05l.25-.05zM27.62 14.59l.06-.19h-.04zM29.44 14.58h.04l-.05-.16zM30.17 15.27l-.14-.05v.05z" class="fil2"/><path d="m19.43 11.83.04-.12h-.05z" class="fil4"/><path d="M27.64 14.4h.04l-.01-.12zM19.42 11.71h.05v-.11z" class="fil3"/><path d="m29.47 14.69.01-.11h-.04z" class="fil4"/><path d="M42.12 19.09h.04l-.04-.12zM29.34 11.6h.05l-.04-.09z" class="fil3"/><path d="M29.39 11.7v-.1h-.05z" class="fil4"/><path d="M42.09 18.34h.05l-.06-.1zM38.86 39.06l-.1.01v.05z" class="fil3"/><path d="M30.03 15.27v-.05h-.1z" class="fil4"/><path d="M29.51 15.07c.01-.1.04-.08-.03-.08l.03.08zM9.46 15.3v-.04c-.06 0-.04-.02-.04.04h.04z" class="fil3"/><path d="M38.76 39.12v-.05l-.08.03zM42.12 18.41l.02-.07h-.05z" class="fil4"/><path d="m19.39 15.13-.04.07c.07 0 .04.01.04-.07z" class="fil3"/><path d="M19.51 11.25c-.08 0-.06-.02-.04.06l.04-.06z" class="fil2"/><path d="m42.04 17.73-.04-.07c-.01.08-.03.07.04.07z" class="fil4"/><path d="m9.35 39.03-.06-.05c0 .07-.01.06.06.05z" class="fil3"/><path d="m20.95 9.88-.06.04c.07 0 .06.02.06-.04z" class="fil2"/><path d="M39.64 38.94c-.07-.01-.06-.03-.06.04l.06-.04z" class="fil4"/><path d="m21.23 11.79-.04.05c.06 0 .05.02.04-.05zM9.58 39.05v-.04l-.06.01zM39.47 38.98l-.06.04c.07 0 .06.02.06-.04zM27.4 11.71l-.06-.04c0 .07-.01.05.06.04z" class="fil3"/><path d="M7.35 16.61c-.07 0-.06-.02-.05.04l.05-.04z" class="fil2"/><path d="M9.27 15.3c-.07-.01-.05-.02-.05.05l.05-.05zM40.82 38.37l-.04.05c.06 0 .04.01.04-.05z" class="fil3"/><path d="M42.08 17.97v-.06h-.04z" class="fil2"/><path d="M27.63 11.93c.01-.07.02-.05-.03-.05l.03.05z" class="fil4"/><path d="m7.79 38.21-.04-.04c0 .06-.02.05.04.04z" class="fil3"/><path d="M39.44 15.3v-.04h-.06zM7.52 37.91c0-.06.01-.04-.05-.04l.05.04z" class="fil2"/><path d="m9.62 39.06-.04-.05v.04z" class="fil4"/><path d="M39.22 39.02h-.05v.04zM7.75 16.16c-.06 0-.04-.02-.04.04l.04-.04zM29.34 11.28c.01-.06.02-.05-.04-.05l.04.05zM41.14 16.24c.01-.06.02-.04-.04-.04l.04.04zM41.18 38.04l-.04.04c.06.01.05.02.04-.04z" class="fil3"/><path d="m41.47 37.71-.04.05c.06 0 .04.01.04-.05z" class="fil2"/><path d="m41.23 16.33-.05-.04c0 .06-.01.04.05.04zM41.22 38c-.05 0-.04-.02-.04.04l.04-.04zM41.18 16.29c.01-.06.02-.05-.04-.05l.04.05z" class="fil3"/><path d="M27.63 14.97h-.04v.05zM7.56 37.96c0-.06.01-.05-.04-.05l.04.05z" class="fil2"/><path d="m42.08 17.91-.04-.05v.05zM41.51 37.67c-.06 0-.04-.01-.04.04l.04-.04z" class="fil3"/><path d="M9.5 15.26h-.04v.04z" class="fil4"/><path d="M39.17 39.06v-.04l-.04.04z" class="fil2"/><path d="M27.63 14.97v-.03l-.04.03zM39.47 15.31l-.03-.05v.04z" class="fil3"/><path d="m20.45 10.08-.03.05z" class="fil4"/><path d="m28.48 10.17-.03-.05z" class="fil3"/><path d="m20.32 10.16-.03.04z" class="fil4"/><path d="m28.61 10.25-.04-.04z" class="fil3"/><path d="m20.21 10.25-.04.05z" class="fil2"/><path d="m28.64 10.29-.03-.04zM19.84 10.62l-.04.03z" class="fil4"/><path d="m19.8 10.65-.05.04z" class="fil3"/><path d="m29.07 10.69-.05-.03zM19.72 10.79l-.04.03z" class="fil2"/><path d="m29.22 10.94-.04-.03zM29.27 11.02l-.05-.03z" class="fil3"/><path d="m19.56 11.12-.05.03zM27.09 11.68l-.16-.05z" class="fil2"/><path d="m27.6 11.81-.05-.02z" class="fil3"/><path d="m21.14 12.26.05-.17zM27.68 12.29l-.06-.15zM7.55 16.37l-.04.04z" class="fil2"/><path d="m7.51 16.41-.04.04z" class="fil3"/><path d="m41.43 16.57-.05-.03z" class="fil2"/><path d="m41.55 16.73-.04-.04z" class="fil3"/><path d="m7.27 16.75-.05.03zM41.63 16.86l-.04-.03z" class="fil4"/><path d="m7.19 16.87-.04.03z" class="fil2"/><path d="m41.72 16.98-.05-.03z" class="fil4"/><path d="m7.02 17.16-.04.02z" class="fil3"/><path d="m41.87 17.23-.04-.03z" class="fil2"/><path d="m6.98 17.25-.04.02zM41.92 17.31l-.05-.03zM6.94 17.33l-.04.02z" class="fil3"/><path d="m7.63 16.28-.04.05z" class="fil2"/><path d="m6.74 17.77-.04.03z" class="fil4"/><path d="m7.67 16.24-.04.04zM7.71 16.2l-.04.04z" class="fil2"/><path d="m41.1 16.2-.05-.03zM41.05 16.17l-.04-.05z" class="fil3"/><path d="m7.59 16.33-.04.04z" class="fil2"/><path d="m8 15.95-.04.05z" class="fil3"/><path d="m40.81 15.96-.03-.04zM8.17 15.84l-.04.05zM40.64 15.84l-.03-.04z" class="fil2"/><path d="m8.29 15.75-.03.05z" class="fil4"/><path d="m40.52 15.76-.04-.04z" class="fil2"/><path d="m8.42 15.68-.04.04z" class="fil4"/><path d="m40.32 15.63-.03-.04zM8.53 15.6l-.03.04z" class="fil3"/><path d="m42.12 36.53-.04.04z" class="fil4"/><path d="m42.04 36.74-.04.03z" class="fil2"/><path d="m40.23 15.6-.03-.05z" class="fil4"/><path d="m41.96 36.94-.04.03z" class="fil2"/><path d="m6.94 37.04-.04-.03zM6.98 37.13l-.04-.03z" class="fil3"/><path d="m41.84 37.18-.05.04z" class="fil4"/><path d="m41.8 37.27-.05.03z" class="fil3"/><path d="m7.15 37.41-.04-.03zM41.72 37.39l-.05.03zM7.23 37.54l-.05-.03z" class="fil2"/><path d="m41.63 37.5-.04.05z" class="fil3"/><path d="m41.59 37.55-.04.03z" class="fil4"/><path d="m7.31 37.67-.04-.04z" class="fil3"/><path d="m7.35 37.7-.04-.03z" class="fil4"/><path d="m26.87 9.84-.16-.04zM8.62 15.55l-.03.05z" class="fil2"/><path d="m40.16 15.55-.04-.04z" class="fil4"/><path d="m8.7 15.52-.03.04zM21.34 9.83l-.12.05zM7.59 38l-.03-.04z" class="fil2"/><path d="M7.64 38.04 7.59 38z" class="fil4"/><path d="m27.6 9.88-.12-.05z" class="fil2"/><path d="m7.68 38.08-.04-.04z" class="fil4"/><path d="m8.78 15.47-.03.05zM7.71 38.12l-.03-.04z" class="fil2"/><path d="m41.14 38.08-.04.04z" class="fil3"/><path d="m7.75 38.17-.04-.05z" class="fil2"/><path d="m41.1 38.12-.04.05zM39.98 15.47l-.02-.04z" class="fil3"/><path d="m8 38.37-.04-.05z" class="fil2"/><path d="m8.99 15.39-.03.04z" class="fil3"/><path d="m27.94 9.91-.07-.03zM40.64 38.48l-.03.05z" class="fil2"/><path d="m8.36 38.61-.03-.04z" class="fil4"/><path d="m40.53 38.57-.04.04z" class="fil3"/><path d="m40.44 38.61-.03.04zM40.36 38.65l-.04.04z" class="fil4"/><path d="m8.58 38.73-.03-.04z" class="fil3"/><path d="m40.08 15.51-.04-.04z" class="fil2"/><path d="m40.2 38.73-.04.04z" class="fil4"/><path d="m40.12 38.78-.03.04zM8.86 38.85l-.03-.04zM39.92 38.86l-.04.04z" class="fil2"/><path d="m9.07 38.94-.03-.05zM39.79 38.9l-.04.04zM39.78 15.39l-.03-.04zM8.16 38.49l-.03-.05zM20.78 9.92l-.03.04z" class="fil3"/><path d="m27.22 15.22-.12.05z" class="fil4"/><path d="m9.81 15.23-.09.04z" class="fil2"/><path d="m14.82 39.07-.12-.05zM36.12 39.06l-.03-.04z" class="fil3"/><path d="m28.07 9.96-.04-.04zM27.48 15.19l-.05.04zM10.41 39.1l-.26-.04z" class="fil2"/><path d="m21.21 15.23-.03-.05z" class="fil4"/><path d="m10.48 15.19-.17.03z" class="fil2"/><path d="m27.54 15.14-.02.05zM27.59 15.12l-.05.02z" class="fil3"/><path d="m36.37 39.1-.09-.04z" class="fil2"/><path d="m20.69 9.96-.03.04zM40.28 38.69l-.04.04z" class="fil4"/></g></g></svg>